<svg width="512" height="512" viewBox="0 0 512 512" fill="none" xmlns="http://www.w3.org/2000/svg">
  <defs>
    <linearGradient id="bg" x1="64" y1="56" x2="448" y2="456" gradientUnits="userSpaceOnUse">
      <stop stop-color="#0B0B0E"/>
      <stop offset="1" stop-color="#101014"/>
    </linearGradient>
    <linearGradient id="red" x1="120" y1="96" x2="392" y2="392" gradientUnits="userSpaceOnUse">
      <stop stop-color="#F87171"/>
      <stop offset="1" stop-color="#991B1B"/>
    </linearGradient>
    <filter id="glow" x="52" y="52" width="408" height="408" filterUnits="userSpaceOnUse" color-interpolation-filters="sRGB">
      <feGaussianBlur stdDeviation="18" result="blur"/>
      <feColorMatrix in="blur" type="matrix" values="1 0 0 0 0  0 0.2 0 0 0  0 0 0 0 0  0 0 0 0.38 0"/>
      <feBlend in="SourceGraphic"/>
    </filter>
  </defs>

  <rect x="36" y="36" width="440" height="440" rx="92" fill="url(#bg)" stroke="#EF4444" stroke-opacity="0.28" stroke-width="10"/>
  <rect x="76" y="76" width="360" height="360" rx="64" stroke="white" stroke-opacity="0.05" stroke-width="2"/>

  <g filter="url(#glow)">
    <path d="M256 112L356 156V230C356 304 312 362 256 392C200 362 156 304 156 230V156L256 112Z"
          fill="#0F0F13" stroke="url(#red)" stroke-width="18" stroke-linejoin="round"/>
    <path d="M256 156L317 182V228C317 278 289 322 256 344C223 322 195 278 195 228V182L256 156Z"
          fill="#111114" stroke="#FCA5A5" stroke-opacity="0.6" stroke-width="6" stroke-linejoin="round"/>
    <path d="M256 184V252" stroke="#F87171" stroke-width="18" stroke-linecap="round"/>
    <path d="M224 220H256V252" stroke="#F87171" stroke-width="18" stroke-linecap="round" stroke-linejoin="round"/>
    <circle cx="256" cy="286" r="18" fill="#F87171"/>
  </g>

  <path d="M116 392H196" stroke="#EF4444" stroke-opacity="0.3" stroke-width="8" stroke-linecap="round"/>
  <path d="M316 392H396" stroke="#EF4444" stroke-opacity="0.3" stroke-width="8" stroke-linecap="round"/>
</svg>
